<svg width="1501" height="1700" viewBox="0 0 1501 1700" fill="none" xmlns="http://www.w3.org/2000/svg">
<path d="M0.169678 326.244L1500.17 326L1500.38 1235L0.376854 1235.24L0.169678 326.244Z" fill="#DDA853"/>
<rect width="1500" height="373" transform="matrix(1 -0.000162777 0.000227917 1 0.397705 1326.24)" fill="#A6CDC6"/>
<path d="M813.108 56.6684C367.875 -89.2591 63.614 81.6237 -32.8624 185.306L-32.8256 346.806L1577.67 334.544L1598.61 56.5406C1561.11 77.5467 1369.65 239.078 813.108 56.6684Z" fill="#DDA853"/>
<path d="M764.599 1072.52C319.228 919.247 14.8755 1098.73 -81.6293 1207.63L-81.5906 1377.26L1529.4 1364.39L1550.34 1072.4C1512.83 1094.46 1321.31 1264.12 764.599 1072.52Z" fill="#A6CDC6"/>
</svg>
